<?xml version="1.0" encoding="utf-8"?>
<!-- Generator: Adobe Illustrator 19.0.1, SVG Export Plug-In . SVG Version: 6.00 Build 0)  -->
<!DOCTYPE svg PUBLIC "-//W3C//DTD SVG 1.1//EN" "http://www.w3.org/Graphics/SVG/1.1/DTD/svg11.dtd">
<svg version="1.1" id="Layer_1" xmlns="http://www.w3.org/2000/svg" xmlns:xlink="http://www.w3.org/1999/xlink" x="0px" y="0px"
	 viewBox="0 0 96 96" enable-background="new 0 0 96 96" xml:space="preserve">
<path fill="#DEEFED" d="M65.5,82.9H25.6c-9.7,0-17.5-7.8-17.5-17.5V29c0-9.7,7.8-17.5,17.5-17.5h39.9C75.2,11.5,83,19.4,83,29v36.3
	C83,75.1,75.2,82.9,65.5,82.9z"/>
<path fill="#299589" d="M96,12c0-6.6-5.4-12-12-12H12C5.4,0,0,5.4,0,12v72c0,6.6,5.4,12,12,12h72c6.6,0,12-5.4,12-12V12z M42,74
	c0,2.2-1.8,4-4,4H22c-2.2,0-4-1.8-4-4V58c0-2.2,1.8-4,4-4h16c2.2,0,4,1.8,4,4V74z M42,38c0,2.2-1.8,4-4,4H22c-2.2,0-4-1.8-4-4V22
	c0-2.2,1.8-4,4-4h16c2.2,0,4,1.8,4,4V38z M78,74c0,2.2-1.8,4-4,4H58c-2.2,0-4-1.8-4-4V58c0-2.2,1.8-4,4-4h16c2.2,0,4,1.8,4,4V74z
	 M78,38c0,2.2-1.8,4-4,4H58c-2.2,0-4-1.8-4-4V22c0-2.2,1.8-4,4-4h16c2.2,0,4,1.8,4,4V38z"/>
</svg>
