<?xml version="1.0" encoding="utf-8"?>
<!-- Generator: Adobe Illustrator 19.0.1, SVG Export Plug-In . SVG Version: 6.00 Build 0)  -->
<!DOCTYPE svg PUBLIC "-//W3C//DTD SVG 1.1//EN" "http://www.w3.org/Graphics/SVG/1.1/DTD/svg11.dtd">
<svg version="1.1" id="Layer_1" xmlns="http://www.w3.org/2000/svg" xmlns:xlink="http://www.w3.org/1999/xlink" x="0px" y="0px"
	 viewBox="0 0 96 96" enable-background="new 0 0 96 96" xml:space="preserve">
<rect x="9.7" y="12.6" fill="#FEE5DF" width="74.9" height="71.4"/>
<path fill="#F54E25" d="M84,0H12C5.4,0,0,5.4,0,12v72c0,6.6,5.4,12,12,12h72c6.6,0,12-5.4,12-12V12C96,5.4,90.6,0,84,0z M56,74
	c0,2.2-1.8,4-4,4H18c-2.2,0-4-1.8-4-4v-4c0-2.2,1.8-4,4-4h34c2.2,0,4,1.8,4,4V74z M70,50c0,2.2-1.8,4-4,4H18c-2.2,0-4-1.8-4-4v-4
	c0-2.2,1.8-4,4-4h48c2.2,0,4,1.8,4,4V50z M82,26c0,2.2-1.8,4-4,4H18c-2.2,0-4-1.8-4-4v-4c0-2.2,1.8-4,4-4h60c2.2,0,4,1.8,4,4V26z"/>
</svg>
