<?xml version="1.0" encoding="utf-8"?>
<!-- Generator: Adobe Illustrator 19.0.1, SVG Export Plug-In . SVG Version: 6.00 Build 0)  -->
<!DOCTYPE svg PUBLIC "-//W3C//DTD SVG 1.1//EN" "http://www.w3.org/Graphics/SVG/1.1/DTD/svg11.dtd">
<svg version="1.1" id="Layer_1" xmlns="http://www.w3.org/2000/svg" xmlns:xlink="http://www.w3.org/1999/xlink" x="0px" y="0px"
	 viewBox="0 0 96 96" enable-background="new 0 0 96 96" xml:space="preserve">
<path fill="#F54E25" d="M0,84c0,6.6,5.4,12,12,12h72c6.6,0,12-5.4,12-12V12c0-6.6-5.4-12-12-12H12C5.4,0,0,5.4,0,12"/>
<path fill="#FEE5DF" d="M75.2,20.8h-3.5v11.8H55.3V20.8H40.7v11.8H24.3V20.8h-3.5c-4.3,0-7.8,3.5-7.8,7.8v46.7
	c0,4.3,3.5,7.8,7.8,7.8h54.4c4.3,0,7.8-3.5,7.8-7.8V28.6C83,24.3,79.5,20.8,75.2,20.8z M75.2,75.2H20.8V44.1h54.4V75.2z M36.2,12
	h-7.4v16.2h7.4V12z M67.2,12h-7.4v16.2h7.4V12z"/>
</svg>
