<?xml version="1.0" encoding="UTF-8" standalone="no"?>
<svg
   xmlns:dc="http://purl.org/dc/elements/1.1/"
   xmlns:cc="http://creativecommons.org/ns#"
   xmlns:rdf="http://www.w3.org/1999/02/22-rdf-syntax-ns#"
   xmlns:svg="http://www.w3.org/2000/svg"
   xmlns="http://www.w3.org/2000/svg"
   xmlns:sodipodi="http://sodipodi.sourceforge.net/DTD/sodipodi-0.dtd"
   xmlns:inkscape="http://www.inkscape.org/namespaces/inkscape"
   id="Layer_1"
   data-name="Layer 1"
   viewBox="0 0 96 96"
   version="1.1"
   sodipodi:docname="correlationrules.svg"
   inkscape:version="0.92.4 5da689c313, 2019-01-14">
  <metadata
     id="metadata877">
    <rdf:RDF>
      <cc:Work
         rdf:about="">
        <dc:format>image/svg+xml</dc:format>
        <dc:type
           rdf:resource="http://purl.org/dc/dcmitype/StillImage" />
      </cc:Work>
    </rdf:RDF>
  </metadata>
  <sodipodi:namedview
     pagecolor="#ffffff"
     bordercolor="#666666"
     borderopacity="1"
     objecttolerance="10"
     gridtolerance="10"
     guidetolerance="10"
     inkscape:pageopacity="0"
     inkscape:pageshadow="2"
     inkscape:window-width="3780"
     inkscape:window-height="2081"
     id="namedview875"
     showgrid="false"
     inkscape:zoom="19.302083"
     inkscape:cx="48"
     inkscape:cy="48"
     inkscape:window-x="0"
     inkscape:window-y="0"
     inkscape:window-maximized="1"
     inkscape:current-layer="Layer_1" />
  <defs
     id="defs868">
    <style
       id="style866">.cls-1{fill-rule:evenodd;}</style>
  </defs>
  <title
     id="title870">Artboard 94 copy 8</title>
  <polygon
     class="cls-1"
     points="37.43 42.65 28.31 47.2 28.31 57.84 8.63 57.84 8.63 38.16 28.31 38.16 28.31 38.95 31.93 37.15 23.09 28.31 8.63 28.31 8.63 8.63 28.31 8.63 28.31 23.09 38.88 33.66 67.69 19.26 67.69 8.63 87.38 8.63 87.38 28.31 67.69 28.31 67.69 27.52 44.39 39.17 58.57 53.35 67.69 48.8 67.69 38.16 87.38 38.16 87.38 57.84 67.69 57.84 67.69 57.05 64.08 58.85 72.91 67.69 87.38 67.69 87.38 87.38 67.69 87.38 67.69 72.91 57.12 62.34 28.31 76.74 28.31 87.38 8.63 87.38 8.63 67.69 28.31 67.69 28.31 68.48 51.61 56.83 37.43 42.65"
     id="polygon872"
     style="fill:#999999" />
</svg>
