<?xml version="1.0" encoding="UTF-8" standalone="no"?>
<svg
   xmlns:dc="http://purl.org/dc/elements/1.1/"
   xmlns:cc="http://creativecommons.org/ns#"
   xmlns:rdf="http://www.w3.org/1999/02/22-rdf-syntax-ns#"
   xmlns:svg="http://www.w3.org/2000/svg"
   xmlns="http://www.w3.org/2000/svg"
   xmlns:sodipodi="http://sodipodi.sourceforge.net/DTD/sodipodi-0.dtd"
   xmlns:inkscape="http://www.inkscape.org/namespaces/inkscape"
   id="Layer_1"
   data-name="Layer 1"
   viewBox="0 0 96 96"
   version="1.1"
   sodipodi:docname="informationmodel.svg"
   inkscape:version="0.92.4 5da689c313, 2019-01-14">
  <metadata
     id="metadata929">
    <rdf:RDF>
      <cc:Work
         rdf:about="">
        <dc:format>image/svg+xml</dc:format>
        <dc:type
           rdf:resource="http://purl.org/dc/dcmitype/StillImage" />
      </cc:Work>
    </rdf:RDF>
  </metadata>
  <sodipodi:namedview
     pagecolor="#ffffff"
     bordercolor="#666666"
     borderopacity="1"
     objecttolerance="10"
     gridtolerance="10"
     guidetolerance="10"
     inkscape:pageopacity="0"
     inkscape:pageshadow="2"
     inkscape:window-width="901"
     inkscape:window-height="480"
     id="namedview927"
     showgrid="false"
     inkscape:zoom="2.4583333"
     inkscape:cx="48"
     inkscape:cy="48"
     inkscape:window-x="786"
     inkscape:window-y="636"
     inkscape:window-maximized="0"
     inkscape:current-layer="Layer_1" />
  <defs
     id="defs920">
    <style
       id="style918">.cls-1{fill-rule:evenodd;}</style>
  </defs>
  <title
     id="title922">Artboard 94 copy 10</title>
  <path
     class="cls-1"
     d="M53.64,52.2H31a12.85,12.85,0,1,1,.17-7.87H53.64a19,19,0,0,1,1.15-3.51l-18-11.19a12.85,12.85,0,1,1,4.73-6.33l18,11.16a18.37,18.37,0,1,1,0,27.6L41.66,73.13a13.09,13.09,0,0,1,.54,3.73,12.84,12.84,0,1,1-5-10.21l17.62-11A18.88,18.88,0,0,1,53.64,52.2Z"
     id="path924"
     style="fill:#808080" />
</svg>
